<svg xmlns="http://www.w3.org/2000/svg" viewBox="0 0 800 600" width="100%" height="100%">
  <!-- Background Elements -->
  <defs>
    <linearGradient id="grad1" x1="0%" y1="0%" x2="100%" y2="100%">
      <stop offset="0%" style="stop-color:#4F46E5;stop-opacity:0.2" />
      <stop offset="100%" style="stop-color:#7C3AED;stop-opacity:0.2" />
    </linearGradient>
    <linearGradient id="grad2" x1="0%" y1="0%" x2="100%" y2="0%">
      <stop offset="0%" style="stop-color:#4F46E5;stop-opacity:1" />
      <stop offset="100%" style="stop-color:#7C3AED;stop-opacity:1" />
    </linearGradient>
  </defs>
  
  <!-- Background Shape -->
  <rect x="0" y="0" width="800" height="600" fill="white" />
  <path d="M0,100 Q400,150 800,50 L800,600 L0,600 Z" fill="url(#grad1)" />
  
  <!-- Decorative Elements -->
  <circle cx="700" cy="100" r="50" fill="url(#grad2)" opacity="0.1" />
  <circle cx="100" cy="500" r="80" fill="url(#grad2)" opacity="0.1" />
  <circle cx="400" cy="300" r="30" fill="url(#grad2)" opacity="0.1" />
  
  <!-- Main Computer/Device -->
  <rect x="250" y="150" width="300" height="200" rx="10" fill="#2D3748" />
  <rect x="260" y="160" width="280" height="170" rx="5" fill="#A5B4FC" />
  
  <!-- Screen Content -->
  <rect x="280" y="180" width="240" height="20" rx="3" fill="#4F46E5" />
  <rect x="280" y="210" width="180" height="10" rx="3" fill="#6366F1" />
  <rect x="280" y="230" width="220" height="10" rx="3" fill="#6366F1" />
  <rect x="280" y="250" width="200" height="10" rx="3" fill="#6366F1" />
  <rect x="280" y="280" width="80" height="30" rx="5" fill="#4F46E5" />
  
  <!-- Computer Stand -->
  <rect x="350" y="350" width="100" height="20" rx="5" fill="#2D3748" />
  <rect x="375" y="370" width="50" height="30" rx="5" fill="#2D3748" />
  <rect x="350" y="400" width="100" height="10" rx="5" fill="#2D3748" />
  
  <!-- Code Elements -->
  <g transform="translate(500, 200)">
    <rect x="0" y="0" width="150" height="120" rx="5" fill="#E5E7EB" />
    <rect x="10" y="10" width="130" height="10" rx="2" fill="#4F46E5" />
    <rect x="10" y="30" width="80" height="10" rx="2" fill="#6366F1" />
    <rect x="10" y="50" width="100" height="10" rx="2" fill="#6366F1" />
    <rect x="10" y="70" width="90" height="10" rx="2" fill="#6366F1" />
    <rect x="10" y="90" width="70" height="10" rx="2" fill="#6366F1" />
  </g>
  
  <!-- Mobile Device -->
  <g transform="translate(150, 220)">
    <rect x="0" y="0" width="70" height="130" rx="10" fill="#2D3748" />
    <rect x="5" y="10" width="60" height="110" rx="5" fill="#A5B4FC" />
    <rect x="15" y="30" width="40" height="5" rx="1" fill="#4F46E5" />
    <rect x="15" y="40" width="30" height="5" rx="1" fill="#6366F1" />
    <rect x="15" y="50" width="35" height="5" rx="1" fill="#6366F1" />
    <rect x="15" y="70" width="40" height="20" rx="3" fill="#4F46E5" />
    <circle cx="35" cy="20" r="3" fill="#4F46E5" />
  </g>
  
  <!-- Floating Elements -->
  <g transform="translate(450, 100)">
    <circle cx="0" cy="0" r="15" fill="#4F46E5" />
    <circle cx="40" cy="20" r="10" fill="#7C3AED" />
    <circle cx="-30" cy="30" r="8" fill="#6366F1" />
  </g>
  
  <g transform="translate(200, 400)">
    <circle cx="0" cy="0" r="12" fill="#4F46E5" />
    <circle cx="30" cy="-20" r="8" fill="#7C3AED" />
    <circle cx="-20" cy="-10" r="6" fill="#6366F1" />
  </g>
  
  <!-- Connection Lines -->
  <path d="M220,250 C270,200 300,300 350,250" stroke="#4F46E5" stroke-width="2" fill="none" />
  <path d="M450,250 C500,200 530,300 580,250" stroke="#7C3AED" stroke-width="2" fill="none" />
  
  <!-- Abstract Code/Data Flow -->
  <g transform="translate(400, 450)">
    <rect x="-150" y="0" width="300" height="40" rx="5" fill="#E5E7EB" />
    <rect x="-140" y="10" width="50" height="20" rx="3" fill="#4F46E5" />
    <rect x="-80" y="10" width="60" height="20" rx="3" fill="#6366F1" />
    <rect x="-10" y="10" width="40" height="20" rx="3" fill="#7C3AED" />
    <rect x="40" y="10" width="70" height="20" rx="3" fill="#4F46E5" />
    <rect x="120" y="10" width="20" height="20" rx="3" fill="#7C3AED" />
  </g>
</svg>